<mxfile host="app.diagrams.net" modified="2024-03-06T00:24:07.836Z" agent="Mozilla/5.0 (Windows NT 10.0; Win64; x64) AppleWebKit/537.36 (KHTML, like Gecko) Chrome/122.0.0.0 Safari/537.36" version="24.0.2" etag="dKOU3QoS638LLleP9yxy" type="github">
  <diagram name="Page-1" id="F84_7rDo28k0WQdVy_bf">
    <mxGraphModel>
      <root>
        <mxCell id="0" />
        <mxCell id="1" parent="0" />
      </root>
    </mxGraphModel>
  </diagram>
</mxfile>
